<?xml version="1.0" encoding="utf-8"?>
<!-- Generator: Adobe Illustrator 16.0.0, SVG Export Plug-In . SVG Version: 6.00 Build 0)  -->
<!DOCTYPE svg PUBLIC "-//W3C//DTD SVG 1.1//EN" "http://www.w3.org/Graphics/SVG/1.1/DTD/svg11.dtd">
<svg version="1.1" xmlns="http://www.w3.org/2000/svg" xmlns:xlink="http://www.w3.org/1999/xlink" x="0px" y="0px" width="256px"
	 height="256px" viewBox="0 0 256 256" enable-background="new 0 0 256 256" xml:space="preserve">
<g id="Layer_1">
</g>
<g id="Isolation_Mode">
	<g>
		<path fill="#FBC534" d="M174.755,11.22c-17.568,0-33.792,5.76-46.888,15.493c19.302,14.342,31.812,37.313,31.812,63.208
			c0,2.217-0.099,4.408-0.277,6.58c25.857,11.323,44.457,36.138,46.888,65.545c27.77-12.158,47.17-39.875,47.17-72.125
			C253.459,46.457,218.221,11.22,174.755,11.22"/>
		<path fill="#9BDBF9" d="M174.829,168.567c-17.565,0-33.792-5.76-46.887-15.491c-13.097,9.731-29.32,15.491-46.893,15.491
			c-11.214,0-21.878-2.352-31.533-6.579c-0.18,2.17-0.278,4.361-0.278,6.579c0,43.466,35.235,78.699,78.704,78.699
			c43.463,0,78.702-35.233,78.702-78.699c0-2.218-0.096-4.409-0.28-6.579C196.709,166.216,186.045,168.567,174.829,168.567"/>
		<path fill="#80C453" d="M128.012,89.922c-0.024,0-0.049,0-0.073,0c11.189,0.011,21.829,2.362,31.462,6.58
			c-1.917,23.149-13.852,43.458-31.459,56.575c13.108,9.764,29.356,15.547,46.959,15.547c11.218,0,21.882-2.351,31.537-6.576
			C203.097,121.657,169.265,89.922,128.012,89.922"/>
		<path fill="#FF8BA4" d="M96.51,96.5c-0.177-2.167-0.278-4.363-0.278-6.58c0-25.894,12.51-48.866,31.812-63.207
			C114.951,16.979,98.724,11.22,81.154,11.22c-43.465,0-78.702,35.236-78.702,78.7c0,32.253,19.4,59.965,47.168,72.124
			C52.052,132.637,70.654,107.824,96.51,96.5"/>
		<path fill="#FB8634" d="M127.866,89.922c11.211,0,21.875,2.351,31.531,6.58c0.181-2.17,0.282-4.366,0.282-6.58
			c0-25.895-12.51-48.866-31.813-63.211c-19.302,14.345-31.811,37.316-31.811,63.211c0,2.214,0.099,4.409,0.281,6.58
			C105.988,92.273,116.652,89.922,127.866,89.922"/>
		<path fill="#93492C" d="M159.401,96.5c-9.654-4.226-20.321-6.58-31.534-6.58c-11.218,0-21.881,2.354-31.536,6.58
			c1.92,23.184,13.883,43.518,31.536,56.632C145.519,140.018,157.479,119.684,159.401,96.5"/>
		<path fill="#A572D3" d="M96.547,96.397c-0.071,0.031-0.144,0.057-0.216,0.088c0,0.005,0,0.011,0.002,0.016
			c0.069-0.033,0.143-0.063,0.213-0.096V96.397z"/>
		<path fill="#A572D3" d="M96.334,96.5c-25.854,11.324-44.46,36.126-46.893,65.533c9.655,4.223,20.319,6.577,31.534,6.577
			c17.573,0,33.794-5.763,46.886-15.495C110.217,140.002,98.257,119.676,96.334,96.5"/>
	</g>
</g>
</svg>
