<?xml version="1.0" encoding="UTF-8"?>
<svg xmlns="http://www.w3.org/2000/svg" xmlns:xlink="http://www.w3.org/1999/xlink" width="30pt" height="30pt" viewBox="0 0 30 30" version="1.1">
<g id="surface1">
<path style=" stroke:none;fill-rule:nonzero;fill:rgb(98.431373%,77.254902%,20.392157%);fill-opacity:1;" d="M 20.480469 1.316406 C 18.421875 1.316406 16.519531 1.988281 14.984375 3.128906 C 17.246094 4.8125 18.710938 7.503906 18.710938 10.539062 C 18.710938 10.796875 18.699219 11.054688 18.679688 11.308594 C 21.710938 12.636719 23.890625 15.542969 24.175781 18.988281 C 27.429688 17.566406 29.703125 14.316406 29.703125 10.539062 C 29.703125 5.445312 25.574219 1.316406 20.480469 1.316406 "/>
<path style=" stroke:none;fill-rule:nonzero;fill:rgb(60.784314%,85.882353%,97.647059%);fill-opacity:1;" d="M 20.488281 19.753906 C 18.429688 19.753906 16.527344 19.078125 14.992188 17.9375 C 13.457031 19.078125 11.558594 19.753906 9.496094 19.753906 C 8.183594 19.753906 6.933594 19.476562 5.800781 18.984375 C 5.78125 19.238281 5.769531 19.492188 5.769531 19.753906 C 5.769531 24.847656 9.898438 28.976562 14.992188 28.976562 C 20.085938 28.976562 24.214844 24.847656 24.214844 19.753906 C 24.214844 19.492188 24.203125 19.238281 24.183594 18.984375 C 23.050781 19.476562 21.800781 19.753906 20.488281 19.753906 "/>
<path style=" stroke:none;fill-rule:nonzero;fill:rgb(50.196078%,76.862745%,32.54902%);fill-opacity:1;" d="M 15 10.539062 C 15 10.539062 14.996094 10.539062 14.992188 10.539062 C 16.304688 10.539062 17.550781 10.816406 18.679688 11.308594 C 18.457031 14.023438 17.054688 16.402344 14.992188 17.9375 C 16.53125 19.082031 18.433594 19.761719 20.496094 19.761719 C 21.8125 19.761719 23.058594 19.484375 24.191406 18.988281 C 23.800781 14.257812 19.835938 10.539062 15 10.539062 "/>
<path style=" stroke:none;fill-rule:nonzero;fill:rgb(100%,54.509804%,64.313725%);fill-opacity:1;" d="M 11.308594 11.308594 C 11.289062 11.054688 11.277344 10.796875 11.277344 10.539062 C 11.277344 7.503906 12.742188 4.8125 15.003906 3.128906 C 13.472656 1.988281 11.570312 1.316406 9.511719 1.316406 C 4.417969 1.316406 0.289062 5.445312 0.289062 10.539062 C 0.289062 14.316406 2.5625 17.566406 5.816406 18.988281 C 6.101562 15.542969 8.28125 12.636719 11.308594 11.308594 "/>
<path style=" stroke:none;fill-rule:nonzero;fill:rgb(98.431373%,52.54902%,20.392157%);fill-opacity:1;" d="M 14.984375 10.539062 C 16.296875 10.539062 17.546875 10.8125 18.679688 11.308594 C 18.699219 11.054688 18.710938 10.796875 18.710938 10.539062 C 18.710938 7.503906 17.246094 4.8125 14.984375 3.128906 C 12.722656 4.8125 11.257812 7.503906 11.257812 10.539062 C 11.257812 10.796875 11.269531 11.054688 11.289062 11.308594 C 12.421875 10.8125 13.671875 10.539062 14.984375 10.539062 "/>
<path style=" stroke:none;fill-rule:nonzero;fill:rgb(57.647059%,28.627451%,17.254902%);fill-opacity:1;" d="M 18.679688 11.308594 C 17.546875 10.8125 16.296875 10.539062 14.984375 10.539062 C 13.667969 10.539062 12.421875 10.8125 11.289062 11.308594 C 11.515625 14.027344 12.914062 16.410156 14.984375 17.945312 C 17.054688 16.410156 18.453125 14.027344 18.679688 11.308594 "/>
<path style=" stroke:none;fill-rule:nonzero;fill:rgb(64.705882%,44.705882%,82.745098%);fill-opacity:1;" d="M 11.3125 11.296875 C 11.304688 11.300781 11.296875 11.304688 11.289062 11.308594 C 11.296875 11.304688 11.304688 11.300781 11.3125 11.296875 Z M 11.3125 11.296875 "/>
<path style=" stroke:none;fill-rule:nonzero;fill:rgb(64.705882%,44.705882%,82.745098%);fill-opacity:1;" d="M 11.289062 11.308594 C 8.257812 12.636719 6.078125 15.542969 5.792969 18.988281 C 6.925781 19.484375 8.175781 19.757812 9.488281 19.757812 C 11.546875 19.757812 13.449219 19.082031 14.984375 17.941406 C 12.917969 16.40625 11.515625 14.023438 11.289062 11.308594 "/>
</g>
</svg>
